<?xml version="1.0" encoding="UTF-8"?>
<svg xmlns="http://www.w3.org/2000/svg" xmlns:xlink="http://www.w3.org/1999/xlink" width="48pt" height="48pt" viewBox="0 0 48 48" version="1.1">
<g id="surface1">
<path style=" stroke:none;fill-rule:nonzero;fill:rgb(3.921569%,81.176471%,51.372549%);fill-opacity:1;" d="M 16.007812 48 C 20.425781 48 24.007812 44.417969 24.007812 40 L 24.007812 32 L 16.007812 32 C 11.589844 32 8.007812 35.582031 8.007812 40 C 8.007812 44.417969 11.589844 48 16.007812 48 Z M 16.007812 48 "/>
<path style=" stroke:none;fill-rule:nonzero;fill:rgb(63.529412%,34.901961%,100%);fill-opacity:1;" d="M 8.007812 24 C 8.007812 19.582031 11.589844 16 16.007812 16 L 24.007812 16 L 24.007812 32 L 16.007812 32 C 11.589844 32 8.007812 28.417969 8.007812 24 Z M 8.007812 24 "/>
<path style=" stroke:none;fill-rule:nonzero;fill:rgb(94.901961%,30.588235%,11.764706%);fill-opacity:1;" d="M 8.007812 8 C 8.007812 3.585938 11.585938 0.00390625 16 0 L 24 0 L 24 16 L 16.007812 16 C 11.589844 16 8.007812 12.417969 8.007812 8 Z M 8.007812 8 "/>
<path style=" stroke:none;fill-rule:nonzero;fill:rgb(100%,44.705882%,38.431373%);fill-opacity:1;" d="M 24.007812 0 L 32.007812 0 C 36.425781 0 40.007812 3.582031 40.007812 8 C 40.007812 12.417969 36.425781 16 32.007812 16 L 24.007812 16 Z M 24.007812 0 "/>
<path style=" stroke:none;fill-rule:nonzero;fill:rgb(10.196078%,73.72549%,99.607843%);fill-opacity:1;" d="M 40.007812 24 C 40.007812 28.417969 36.425781 32 32.007812 32 C 27.589844 32 24.007812 28.417969 24.007812 24 C 24.007812 19.582031 27.589844 16 32.007812 16 C 36.425781 16 40.007812 19.582031 40.007812 24 Z M 40.007812 24 "/>
</g>
</svg>
