<?xml version="1.0" encoding="UTF-8"?>
<svg xmlns="http://www.w3.org/2000/svg" xmlns:xlink="http://www.w3.org/1999/xlink" width="48pt" height="48pt" viewBox="0 0 48 48" version="1.1">
<g id="surface1">
<path style=" stroke:none;fill-rule:nonzero;fill:rgb(51.372549%,80.392157%,16.078431%);fill-opacity:1;" d="M 42.253906 11.375 L 25.699219 1.773438 C 24.65625 1.179688 23.292969 1.179688 22.242188 1.773438 L 5.558594 11.375 C 4.480469 11.996094 3.75 13.15625 3.75 14.402344 L 3.75 33.582031 C 3.75 34.824219 4.496094 35.988281 5.574219 36.613281 L 9.972656 39.121094 C 12.082031 40.160156 12.667969 40.160156 13.625 40.160156 C 16.75 40.160156 18.375 38.269531 18.375 34.972656 L 18.375 16.039062 C 18.375 15.773438 18.542969 15.375 18.277344 15.375 L 16.171875 15.375 C 15.902344 15.375 15.375 15.773438 15.375 16.039062 L 15.375 34.972656 C 15.375 36.433594 14.019531 37.886719 11.550781 36.652344 L 7.003906 34.023438 C 6.84375 33.9375 6.75 33.765625 6.75 33.582031 L 6.75 14.402344 C 6.75 14.222656 6.921875 14.039062 7.085938 13.949219 L 23.726562 4.363281 C 23.882812 4.273438 24.101562 4.273438 24.257812 4.363281 L 40.742188 13.945312 C 40.902344 14.039062 40.875 14.214844 40.875 14.402344 L 40.875 33.582031 C 40.875 33.765625 40.910156 33.941406 40.753906 34.03125 L 24.203125 43.621094 C 24.0625 43.707031 23.878906 43.707031 23.722656 43.621094 L 19.480469 41.089844 C 19.351562 41.015625 19.195312 40.988281 19.074219 41.058594 C 17.894531 41.726562 17.675781 41.816406 16.570312 42.199219 C 16.296875 42.292969 15.894531 42.457031 16.722656 42.921875 L 22.269531 46.207031 C 22.800781 46.511719 23.40625 46.671875 24.015625 46.671875 C 24.628906 46.671875 25.230469 46.511719 25.761719 46.207031 L 42.253906 36.613281 C 43.332031 35.984375 43.875 34.824219 43.875 33.582031 L 43.875 14.402344 C 43.875 13.15625 43.332031 11.996094 42.253906 11.375 Z M 29.148438 30.542969 C 24.75 30.542969 23.78125 29.328125 23.457031 27.140625 C 23.421875 26.90625 23.222656 26.625 22.980469 26.625 L 20.832031 26.625 C 20.566406 26.625 20.351562 26.949219 20.351562 27.210938 C 20.351562 30.011719 21.875 33.402344 29.148438 33.402344 C 34.410156 33.402344 37.429688 31.359375 37.429688 27.738281 C 37.429688 24.148438 35.003906 23.207031 29.898438 22.53125 C 24.738281 21.847656 24.214844 21.503906 24.214844 20.296875 C 24.214844 19.296875 24.660156 17.96875 28.480469 17.96875 C 31.894531 17.96875 33.152344 18.703125 33.671875 21.003906 C 33.714844 21.21875 33.914062 21.375 34.136719 21.375 L 36.292969 21.375 C 36.425781 21.375 36.554688 21.320312 36.644531 21.226562 C 36.734375 21.125 36.785156 20.996094 36.773438 20.859375 C 36.4375 16.894531 33.804688 15.050781 28.480469 15.050781 C 23.742188 15.050781 20.917969 17.050781 20.917969 20.402344 C 20.917969 24.039062 23.730469 25.042969 28.277344 25.492188 C 33.714844 26.027344 34.136719 26.820312 34.136719 27.890625 C 34.136719 29.75 32.644531 30.542969 29.148438 30.542969 Z M 29.148438 30.542969 "/>
</g>
</svg>
