<?xml version="1.0" encoding="UTF-8"?>
<svg xmlns="http://www.w3.org/2000/svg" xmlns:xlink="http://www.w3.org/1999/xlink" width="48pt" height="48pt" viewBox="0 0 48 48" version="1.1">
<defs>
<clipPath id="clip1">
  <path d="M 14 4 L 20 4 L 20 11 L 14 11 Z M 14 4 "/>
</clipPath>
<clipPath id="clip2">
  <path d="M 67.074219 24.089844 C 67.074219 47.90625 47.761719 67.195312 23.96875 67.195312 C 0.175781 67.195312 -19.132812 47.90625 -19.132812 24.089844 C -19.132812 0.277344 0.175781 -19.011719 23.96875 -19.011719 C 47.761719 -19.011719 67.074219 0.277344 67.074219 24.089844 Z M 67.074219 24.089844 "/>
</clipPath>
<clipPath id="clip3">
  <path d="M 1 1 L 36 1 L 36 35 L 1 35 Z M 1 1 "/>
</clipPath>
<clipPath id="clip4">
  <path d="M 67.074219 24.089844 C 67.074219 47.90625 47.761719 67.195312 23.96875 67.195312 C 0.175781 67.195312 -19.132812 47.90625 -19.132812 24.089844 C -19.132812 0.277344 0.175781 -19.011719 23.96875 -19.011719 C 47.761719 -19.011719 67.074219 0.277344 67.074219 24.089844 Z M 67.074219 24.089844 "/>
</clipPath>
<clipPath id="clip5">
  <path d="M 27 38 L 34 38 L 34 44 L 27 44 Z M 27 38 "/>
</clipPath>
<clipPath id="clip6">
  <path d="M 67.074219 24.089844 C 67.074219 47.90625 47.761719 67.195312 23.96875 67.195312 C 0.175781 67.195312 -19.132812 47.90625 -19.132812 24.089844 C -19.132812 0.277344 0.175781 -19.011719 23.96875 -19.011719 C 47.761719 -19.011719 67.074219 0.277344 67.074219 24.089844 Z M 67.074219 24.089844 "/>
</clipPath>
<clipPath id="clip7">
  <path d="M 12 13 L 47 13 L 47 47 L 12 47 Z M 12 13 "/>
</clipPath>
<clipPath id="clip8">
  <path d="M 67.074219 24.089844 C 67.074219 47.90625 47.761719 67.195312 23.96875 67.195312 C 0.175781 67.195312 -19.132812 47.90625 -19.132812 24.089844 C -19.132812 0.277344 0.175781 -19.011719 23.96875 -19.011719 C 47.761719 -19.011719 67.074219 0.277344 67.074219 24.089844 Z M 67.074219 24.089844 "/>
</clipPath>
</defs>
<g id="surface1">
<g clip-path="url(#clip1)" clip-rule="nonzero">
<g clip-path="url(#clip2)" clip-rule="nonzero">
<path style=" stroke:none;fill-rule:nonzero;fill:rgb(97.647059%,97.647059%,97.647059%);fill-opacity:1;" d="M 19.964844 7.195312 C 19.964844 8.746094 18.707031 10.003906 17.152344 10.003906 C 15.601562 10.003906 14.34375 8.746094 14.34375 7.195312 C 14.34375 5.640625 15.601562 4.382812 17.152344 4.382812 C 18.707031 4.382812 19.964844 5.640625 19.964844 7.195312 M 19.964844 7.195312 "/>
</g>
</g>
<g clip-path="url(#clip3)" clip-rule="nonzero">
<g clip-path="url(#clip4)" clip-rule="nonzero">
<path style=" stroke:none;fill-rule:nonzero;fill:rgb(27.058824%,52.54902%,72.54902%);fill-opacity:1;" d="M 23.699219 1.601562 C 21.847656 1.609375 20.074219 1.769531 18.515625 2.039062 C 13.925781 2.847656 13.089844 4.523438 13.089844 7.621094 L 13.089844 11.710938 L 23.9375 11.710938 L 23.9375 13.074219 L 9.019531 13.074219 C 5.863281 13.074219 3.101562 14.949219 2.238281 18.515625 C 1.246094 22.597656 1.191406 25.152344 2.238281 29.414062 C 3.007812 32.589844 4.847656 34.851562 8 34.851562 L 11.191406 34.851562 L 11.191406 29.421875 C 11.191406 25.882812 14.296875 22.78125 17.976562 22.78125 L 29.335938 22.78125 C 32.351562 22.78125 35.207031 20.320312 35.207031 17.328125 L 35.207031 7.640625 C 35.207031 4.734375 32.285156 2.546875 29.335938 2.0625 C 27.476562 1.753906 25.542969 1.617188 23.695312 1.625 M 17.832031 4.890625 C 18.949219 4.890625 19.867188 5.8125 19.867188 6.945312 C 19.867188 8.074219 18.949219 8.980469 17.832031 8.980469 C 16.703125 8.980469 15.789062 8.074219 15.789062 6.945312 C 15.789062 5.8125 16.695312 4.890625 17.832031 4.890625 M 17.832031 4.890625 "/>
</g>
</g>
<g clip-path="url(#clip5)" clip-rule="nonzero">
<g clip-path="url(#clip6)" clip-rule="nonzero">
<path style=" stroke:none;fill-rule:nonzero;fill:rgb(97.647059%,97.647059%,97.647059%);fill-opacity:1;" d="M 33.089844 40.929688 C 33.089844 42.480469 31.832031 43.738281 30.28125 43.738281 C 28.71875 43.738281 27.460938 42.480469 27.460938 40.929688 C 27.460938 39.375 28.71875 38.117188 30.28125 38.117188 C 31.832031 38.117188 33.089844 39.375 33.089844 40.929688 M 33.089844 40.929688 "/>
</g>
</g>
<g clip-path="url(#clip7)" clip-rule="nonzero">
<g clip-path="url(#clip8)" clip-rule="nonzero">
<path style=" stroke:none;fill-rule:nonzero;fill:rgb(100%,90.196078%,20.392157%);fill-opacity:1;" d="M 36.75 13.070312 L 36.75 17.835938 C 36.75 21.527344 33.582031 24.199219 29.972656 24.199219 L 18.066406 24.199219 C 15.101562 24.199219 12.644531 27.15625 12.644531 30.09375 L 12.644531 40.3125 C 12.644531 43.21875 15.195312 44.925781 18.066406 45.757812 C 21.5 46.753906 25.242188 46.945312 29.351562 45.757812 C 32.082031 44.976562 34.777344 43.402344 34.777344 40.3125 L 34.777344 36.21875 L 23.941406 36.21875 L 23.941406 34.859375 L 40.207031 34.859375 C 43.355469 34.859375 44.535156 32.675781 45.632812 29.417969 C 46.769531 26.058594 46.710938 22.820312 45.632812 18.519531 C 44.851562 15.410156 43.363281 13.082031 40.207031 13.082031 M 30.039062 38.953125 C 31.160156 38.953125 32.074219 39.859375 32.074219 40.988281 C 32.074219 42.117188 31.167969 43.046875 30.039062 43.046875 C 28.910156 43.046875 27.996094 42.117188 27.996094 40.988281 C 27.996094 39.859375 28.910156 38.953125 30.039062 38.953125 M 30.039062 38.953125 "/>
</g>
</g>
</g>
</svg>
