<?xml version="1.0" encoding="UTF-8"?>
<svg xmlns="http://www.w3.org/2000/svg" xmlns:xlink="http://www.w3.org/1999/xlink" width="48pt" height="48pt" viewBox="0 0 48 48" version="1.1">
<g id="surface1">
<path style=" stroke:none;fill-rule:nonzero;fill:rgb(80%,40%,60%);fill-opacity:1;" d="M 7.199219 0 L 40.800781 0 C 44.777344 0 48 3.222656 48 7.199219 L 48 40.800781 C 48 44.777344 44.777344 48 40.800781 48 L 7.199219 48 C 3.222656 48 0 44.777344 0 40.800781 L 0 7.199219 C 0 3.222656 3.222656 0 7.199219 0 Z M 7.199219 0 "/>
<path style=" stroke:none;fill-rule:nonzero;fill:rgb(100%,100%,100%);fill-opacity:1;" d="M 24.1875 8.25 C 15.1875 11.34375 9.375 17.625 9.9375 21.375 C 10.5 25.125 16.125 28.125 18.65625 30.09375 C 15.375 31.78125 11.25 34.3125 11.34375 37.59375 C 11.53125 42.09375 16.40625 40.6875 18.46875 39.375 C 20.53125 38.0625 22.59375 34.40625 21.28125 30.5625 C 24.1875 29.8125 26.71875 30.75 27.46875 31.3125 C 30.375 33.375 28.875 35.71875 27.84375 36.09375 C 26.8125 36.46875 27.46875 36.65625 28.125 36.46875 C 28.78125 36.28125 30.1875 35.34375 30.1875 33.75 C 30.1875 29.71875 25.875 27.84375 20.53125 29.25 C 17.4375 25.96875 13.21875 24.46875 13.40625 20.90625 C 13.5 19.59375 13.96875 16.21875 22.3125 12 C 30.65625 7.78125 36.5625 9.46875 35.8125 13.3125 C 34.6875 19.125 24.5625 23.0625 21 19.6875 C 20.8125 19.3125 20.15625 19.03125 20.53125 20.0625 C 22.40625 24.75 37.59375 22.59375 38.25 12.65625 C 38.4375 7.40625 30.84375 6 24.1875 8.25 Z M 16.125 38.25 C 13.78125 39 13.875 37.5 13.96875 36.9375 C 14.25 35.34375 15.5625 33.375 19.5 31.40625 C 20.625 34.96875 18.09375 37.6875 16.125 38.25 Z M 16.125 38.25 "/>
</g>
</svg>
