<?xml version="1.0" encoding="UTF-8"?>
<svg xmlns="http://www.w3.org/2000/svg" xmlns:xlink="http://www.w3.org/1999/xlink" width="48pt" height="48pt" viewBox="0 0 48 48" version="1.1">
<g id="surface1">
<path style=" stroke:none;fill-rule:nonzero;fill:rgb(55.686275%,83.921569%,98.431373%);fill-opacity:1;" d="M 43.984375 36.789062 L 24.839844 47.625 L 24.839844 39.183594 L 36.75 32.625 Z M 45.296875 35.601562 L 45.296875 12.957031 L 38.292969 17.007812 L 38.292969 31.558594 L 45.292969 35.597656 Z M 4.015625 36.789062 L 23.140625 47.617188 L 23.140625 39.183594 L 11.226562 32.625 Z M 2.703125 35.601562 L 2.703125 12.957031 L 9.707031 17.007812 L 9.707031 31.558594 Z M 3.523438 11.488281 L 23.160156 0.375 L 23.160156 8.535156 L 10.578125 15.453125 L 10.476562 15.511719 Z M 44.46875 11.488281 L 24.839844 0.375 L 24.839844 8.535156 L 37.421875 15.449219 L 37.523438 15.507812 L 44.476562 11.488281 Z M 44.46875 11.488281 "/>
<path style=" stroke:none;fill-rule:nonzero;fill:rgb(10.980392%,47.058824%,75.294118%);fill-opacity:1;" d="M 23.160156 37.265625 L 11.390625 30.789062 L 11.390625 17.96875 L 23.160156 24.75 Z M 24.839844 37.265625 L 36.609375 30.796875 L 36.609375 17.96875 L 24.839844 24.75 Z M 12.1875 16.5 L 24 9.996094 L 35.8125 16.5 L 24 23.308594 Z M 12.1875 16.5 "/>
</g>
</svg>
